<svg xmlns="http://www.w3.org/2000/svg" fill="none" viewBox="0 0 512 512"><defs><linearGradient id="grad1" x1="0%" x2="100%" y1="0%" y2="100%"><stop offset="0%" style="stop-color:#16a34a;stop-opacity:1"/><stop offset="100%" style="stop-color:#14532d;stop-opacity:1"/></linearGradient><linearGradient id="grad2" x1="0%" x2="100%" y1="100%" y2="0%"><stop offset="0%" style="stop-color:#22c55e;stop-opacity:1"/><stop offset="100%" style="stop-color:#4ade80;stop-opacity:1"/></linearGradient></defs><circle cx="256" cy="256" r="240" fill="url(#grad1)"/><path fill="none" stroke="url(#grad2)" stroke-linecap="round" stroke-width="20" d="M160 120 Q200 180 160 240 Q120 300 160 360 Q200 420 160 480"/><path fill="none" stroke="url(#grad2)" stroke-linecap="round" stroke-width="20" d="M352 120 Q312 180 352 240 Q392 300 352 360 Q312 420 352 480"/><line x1="175" x2="337" y1="150" y2="150" stroke="#fff" stroke-linecap="round" stroke-width="10" opacity=".9"/><line x1="140" x2="372" y1="210" y2="210" stroke="#fff" stroke-linecap="round" stroke-width="10" opacity=".9"/><line x1="165" x2="347" y1="270" y2="270" stroke="#fff" stroke-linecap="round" stroke-width="10" opacity=".9"/><line x1="140" x2="372" y1="330" y2="330" stroke="#fff" stroke-linecap="round" stroke-width="10" opacity=".9"/><line x1="175" x2="337" y1="390" y2="390" stroke="#fff" stroke-linecap="round" stroke-width="10" opacity=".9"/><path fill="#4ade80" d="M256 80 Q320 100 340 160 Q310 140 256 160 Q202 140 172 160 Q192 100 256 80" opacity=".8"/><path stroke="#16a34a" stroke-linecap="round" stroke-width="4" d="M256 85 Q256 120 256 155"/></svg>